<svg width="482" height="559" viewBox="0 0 482 559" fill="none" xmlns="http://www.w3.org/2000/svg">
<path d="M129.839 236.167C131.302 232.287 133.643 228.882 135.171 225.181L147.552 195.611C148.599 193.155 149.459 190.615 150.485 188.222C151.232 186.479 152.742 184.142 153.641 182.338L161.576 166.09C164.586 160.075 169.988 148.941 174.249 144.08C178.566 139.207 179.43 134.142 182.099 128.633C183.499 126.05 185.181 123.58 186.489 120.951C199.23 95.34 211.731 69.6107 224.292 43.9259C226.771 38.8565 232.287 29.9971 237.741 27.7783C240.877 26.5018 245.541 25.2233 248.895 24.1845C257.368 22.7735 264.848 25.0221 271.925 29.7962C281.026 35.9359 284.028 47.1197 287.756 56.7999C292.593 69.1787 297.426 81.6765 301.862 94.2111C303.851 99.8429 306.433 104.648 308.513 110.02C311.982 118.989 314.779 128.432 318.352 137.375C321.603 146.005 325.266 154.546 328.844 163.043C330.113 166.053 333.964 172.251 334.758 174.907M248.895 24.1845L250.523 24.4247C246.476 25.7691 239.543 27.3814 235.988 29.413C233.772 30.6794 227.341 39.0462 226.269 41.4287C219.392 56.7223 210.973 71.1267 204.273 86.5232C203.705 87.829 201.233 92.1015 201.09 93.1496C201.259 93.5312 202.109 95.4446 202.109 95.7232C202.107 101.631 199.798 106.875 197.112 112.014C196.964 112.297 197.375 113.426 197.479 113.717C195.398 118.15 191.245 122.31 189.471 127.364C188.182 131.037 186.328 135.378 185.316 139.089C184.094 143.572 184.083 145.86 181.986 150.24C179.803 154.8 177.858 156.88 175.046 160.85C174.3 161.905 173.09 165.63 171.848 167.223C170.891 168.451 169.788 170.132 168.528 171.267C168.32 171.454 169.031 174.092 168.889 174.401C168.069 176.191 166.582 177.896 165.503 179.527C164.836 180.535 164.737 182.084 164.341 182.967C163.335 185.207 162.2 187.906 162.375 190.401C163.116 189.664 162.918 188.998 163.35 187.856C164.549 184.69 165.88 183.383 168.459 181.403C167.397 182.796 166.31 184.233 165.422 185.741C164.644 187.062 161.568 195.606 161.035 195.933L160.75 194.733C159.465 196.117 156.923 200.938 155.964 202.625L150.11 212.937C148.753 215.345 147.527 215.941 147.856 218.841C150.09 218.416 150.599 216.285 152.586 214.78M334.758 174.907C339.526 183.565 343.645 194.605 347.469 203.787C350.285 210.552 355.283 221.443 356.585 228.516M334.758 174.907C334.791 175.465 334.87 176.23 335.097 176.733C339.12 185.612 343.077 194.492 346.538 203.609C347.024 204.894 349.226 209.137 349.202 210.281C348.659 209.517 348.5 209.316 348.126 208.47L347.54 208.357M356.585 228.516C357.715 232.931 358.809 237.987 360.501 242.177C363.026 248.425 365.676 254.685 368.373 260.862M356.585 228.516C356.031 227.567 355.468 227.033 354.86 225.852C351.983 220.262 349.857 214.226 347.54 208.357M368.373 260.862C376.539 279.298 383.277 298.151 388.826 317.514C390.131 322.061 391.304 326.627 392.645 331.169C393.573 334.409 394.574 337.63 395.647 340.826C395.958 341.732 397.737 346.564 397.847 347.219M368.373 260.862C367.778 265.523 372.295 274.374 373.714 279.085C375.66 285.54 378.16 292.664 380.133 299.027C381.105 302.16 387.885 329.179 387.066 330.206C386.239 323.611 378.397 291.837 375.772 287.394C374.923 285.958 374.677 283.788 373.105 282.947C373.097 284.107 374.172 286.515 374.459 287.634C375.171 290.402 379.95 306.134 379.372 308.162C377.158 306.748 375.818 294.168 374.754 290.972C372.139 283.114 369.936 275.073 366.004 267.707C365.196 266.196 364.887 263.345 364.232 261.665C363.602 260.215 361.688 255.186 362.535 253.914C363.4 255.546 364.21 259.03 365.005 261.08L365.534 261.078C366.14 260.57 366.724 259.174 366.462 258.406C363.861 250.815 359.838 243.824 357.884 236.01C357.584 234.807 356.268 229.826 355.564 229.417L355.302 230.082C355.523 231.101 355.476 231.779 355.741 232.783C356.178 234.432 357.283 234.726 357.199 236.306L356.792 236.365C353.686 233.382 349.677 220.104 347.485 215.749C345.695 212.192 339.551 200.034 340.569 196.8C341.314 201.335 343.568 207.428 346.194 211.298C347.299 212.928 350.954 221.106 351.53 223.016C353.197 218.309 342.553 201.43 341.494 196.473C341.923 196.647 346.704 207.007 347.54 208.357M397.847 347.219C399.91 351.4 401.731 355.328 403.344 359.703C405.827 366.432 406.725 372.592 410.792 378.605M397.847 347.219L397.465 347.385C397.68 348.48 398.529 349.91 399.039 350.974C402.882 358.996 405.071 367.461 408.125 375.747C409.596 379.746 412.238 379.618 411.414 384.43C410.268 382.778 410.83 381.111 409.261 380.772C409.367 381.973 410.331 383.57 410.677 385.139C408.507 383.27 405.846 376.05 403.207 373.605M410.792 378.605C415.074 380.791 419.408 384.64 423.36 387.389C426.63 389.662 430.006 391.638 433.221 393.999C442.627 400.902 452.774 411.703 456.41 422.946C459.142 431.393 456.765 440.425 455.064 448.783C454.355 452.266 454.093 456.516 452.733 459.772M410.792 378.605C411.207 379.943 414.397 386.024 415.232 387.41M452.733 459.772C452.319 461.655 451.287 463.5 450.485 465.264C445.13 476.998 434.428 484.908 423.879 491.715C417.219 496.011 409.856 499.53 402.481 502.426C401.507 502.808 397.825 504.309 396.91 504.5M452.733 459.772L452.671 458.022M396.91 504.5C392.369 505.909 387.295 507.838 382.961 509.088C362.346 515.129 341.248 519.373 319.905 521.781C317.35 522.073 308.453 523.32 306.586 523.205M452.671 458.022C451.838 460.211 452.226 461.333 450.01 462.024C449.215 463.036 449.824 465.062 449.041 465.559C446.229 467.344 446.541 465.575 444.021 468.656L444.163 468.768L445.397 468.364L445.504 468.676C443.315 472.513 439.616 477.022 436.147 479.809C431.341 483.669 425.039 486.739 419.984 490.342C416.42 492.881 415.208 494.327 411.002 496.017C407.178 497.551 403.237 500.654 399.08 501.678C397.265 502.237 394.858 501.686 393.996 502.494C394.274 502.912 394.329 503.018 394.855 503.122C398.933 503.911 408.857 496.975 410.606 497.515L410.879 498.001C409.288 499.503 399.885 502.229 397.484 503.422C395.879 504.219 391.834 502.622 389.413 503.851L389.274 504.175C390.633 504.615 393.379 504.41 394.877 504.301C395.595 504.325 396.22 504.304 396.91 504.5M306.586 523.205C304.836 523.497 302.814 523.618 301.018 523.754C273.747 525.817 246.21 525.602 218.917 524.024C215.054 523.751 211.155 522.913 207.312 522.556C179.81 519.985 152.482 516.226 125.725 509.195C115.559 506.228 105.622 502.437 95.566 499.129C90.8462 497.575 86.6963 495.247 82.1113 493.478M306.586 523.205C307.353 522.427 337.185 518.56 341.584 517.97C353.978 516.308 365.428 512.596 377.388 509.716L377.39 509.405C375.725 509.203 373.624 510.45 372.524 509.973L372.63 509.585C376.73 507.95 381.419 506.908 385.69 505.862C386.79 505.592 388.209 504.82 389.162 504.787C389.648 505.431 389.462 505.338 390.095 505.739C391.717 505.368 393.338 504.948 394.877 504.301M82.1113 493.478C78.7823 492.403 76.6922 491.289 73.7128 489.592M82.1113 493.478C80.6093 491.177 76.5055 488.486 73.7128 489.592M73.7128 489.592C67.0112 486.032 59.3183 481.698 52.9947 477.486M52.9947 477.486C40.5752 470.917 26.106 456.251 24.3457 441.798C23.7628 437.013 23.847 431.336 23.4945 426.412M52.9947 477.486C51.1694 474.642 46.7192 471.473 44.1883 468.916C40.6639 465.351 36.3098 460.012 33.0968 456.139C32.0993 454.938 30.0468 445.529 30.4406 443.982C31.3157 444.356 31.6134 445.756 32.7892 446.842L33.1383 446.624C33.3457 444.339 28.3745 440.84 27.0814 438.87C26.2927 438.608 26.5929 438.657 25.6198 439.072C23.7733 438.13 25.3253 436.863 24.6126 435.449C23.7575 433.752 25.1195 431.928 24.4531 430.165C24.1426 429.344 24.1822 429.032 24.3441 428.173L24.586 428.309C24.6969 428.841 24.6787 428.918 24.9587 429.466C26.5152 432.529 26.7363 434.3 28.9229 437.142C31.0747 439.937 34.0442 443.93 36.7757 446.346C37.0871 446.389 37.3983 446.436 37.7094 446.479M23.4945 426.412C23.2549 424.622 23.0554 422.826 22.8962 421.024M23.4945 426.412C23.4994 426.418 24.7103 427.913 24.6291 427.722C27.216 433.746 30.0752 438.728 34.8422 443.346C35.6452 444.127 37.1155 445.674 37.7094 446.479M22.8962 421.024C22.4374 418.409 22.4047 415.311 22.6477 412.677C23.942 398.64 32.2955 390.659 42.4358 382.143M22.8962 421.024C22.9081 418.972 22.6974 414.263 24.1665 412.956C24.7196 413.674 24.8792 416.504 25.5499 418.243L25.6927 418.609M66.4151 371.197C66.5066 370.294 66.7036 369.36 66.401 368.531C65.5147 368.277 65.5999 368.451 64.5193 368.833L64.1484 368.904C58.0325 371.156 47.5634 377.827 42.4358 382.143M42.4358 382.143C43.6804 382.044 43.3487 381.88 44.1512 382.47M64.1484 368.904C64.0128 369.393 63.0471 373.078 62.8878 373.302M90.225 318.324C89.1136 321.182 85.8884 328.369 84.1839 330.79C79.4807 338.042 76.8805 344.301 72.9453 351.889C70.9136 355.806 67.1182 366.44 64.5193 368.833M84.1839 330.79C82.203 339.707 75.0505 351.013 71.8558 359.976C71.0733 362.174 66.3731 374.972 65.6215 375.941M90.225 318.324C91.3372 304.041 108.005 279.497 114.407 266.285C115.996 263.006 116.656 258.188 119.226 256.052M90.225 318.324C94.4118 309.451 98.5148 300.462 103.441 291.982C107.549 284.907 112.015 278.116 116.529 271.301M119.226 256.052C119.745 255.167 121.975 253.006 122.593 251.764C125.106 246.712 127.496 241.291 129.839 236.167M119.226 256.052L119.152 256.294C118.724 257.666 116.852 261.152 117.346 262.276L118.654 263.027C118.618 263.524 118.671 263.3 118.523 263.705C120.517 261.579 122.553 256.444 124.613 254.746L124.944 254.892C125.26 258.614 118.678 267.657 116.529 271.301M129.839 236.167C133.433 234.273 146.621 198.323 149.733 192.55C150.132 191.808 150.249 190.409 150.589 189.794C150.661 190.04 151.118 192.309 151.08 192.395C147.648 200.136 146.231 208.334 142.988 216.177C142.1 218.325 139.519 224.098 139.263 226.013C144.678 216.144 146.588 204.049 150.971 193.817C154.773 184.942 158.997 175.903 162.976 167.084C165.959 160.474 173.037 151.126 174.249 144.08M136.813 239.914C138.852 238.504 143.639 230.829 145.511 228.251C153.389 217.4 162.736 207.27 172.07 197.659C174.669 194.983 182.164 185.39 184.75 183.99C185.631 184.951 185.446 189.655 185.781 191.761C188.089 206.308 189.725 221.129 193.895 235.314C194.419 237.095 194.934 239.517 195.567 240.761M136.813 239.914C135.795 240.94 133.555 243.129 133.072 244.503C127.955 259.066 126.449 274.813 123.64 289.946C122.031 298.615 122.002 307.922 121.622 316.722C121.054 314.388 121.45 311.561 121.559 309.167C121.811 303.629 122.026 298.061 122.839 292.572C123.364 289.029 127.008 269.475 126.664 268.187C126.635 268.078 126.614 267.966 126.587 267.857C126.568 267.783 126.548 267.71 126.528 267.636L126.48 268.993C125.828 269.597 125.885 269.568 125.022 269.777C124.312 271.779 125.01 273.006 124.193 274.906C123.93 275.518 123.478 279.257 123.353 280.185C122.495 286.9 121.821 293.636 121.329 300.383C121.081 303.623 120.934 307.808 120.446 310.974C120.127 313.04 120.534 314.588 120.301 316.283L120.08 316.072C120.323 302.275 122.233 288.545 123.286 274.802C123.562 271.195 125.55 262.273 124.876 258.971L124.567 258.926C124.13 260.014 117.496 270.902 116.787 271.423M136.813 239.914C138.468 236.53 148.47 223.987 148.403 222.267C148.266 218.747 151.523 217.705 152.586 214.78M212.377 291.39C211.789 290.093 211.268 289.411 210.462 288.264L209.859 287.743C208.757 287.699 208.396 288.417 207.253 288.496L207.354 288.584L207.296 288.215C209.851 287.028 210.984 283.242 208.036 281.959C207.015 281.948 206.844 282.101 205.969 282.631C206.189 281.561 207.121 281.883 206.808 279.323C206.253 279.817 206.027 280.079 205.336 280.39C205.562 279.525 206.13 279.137 206.79 278.498C206.072 275.335 204.621 271.206 203.609 268.041C201.659 262.02 199.756 255.984 197.899 249.933C197.279 247.886 195.599 242.65 195.567 240.761M195.567 240.761L195.724 240.594C195.699 238.365 193.746 232.784 193.182 230.438C189.376 214.622 187.24 198.284 185.341 182.163C185.222 181.153 183.635 181.091 182.946 180.777C184.008 178.305 185.406 174.748 186.582 172.284C186.712 172.012 187.291 171.776 187.658 171.716C188.127 172.413 188.518 190.492 189.532 193.64C189.56 193.726 189.591 193.811 189.621 193.897M210.462 288.264C208.95 291.349 204.652 293.71 202.51 296.335C196.476 303.732 190.016 310.772 183.866 318.073C174.371 328.467 163.919 338.613 153.951 348.567C147.247 355.262 140.664 362.225 133.565 368.52C131.835 370.051 131.152 370.223 131.527 372.636L131.883 372.941C133.553 371.713 136.373 368.675 138.065 367.04L151.484 353.969C155.552 349.973 161.065 345.625 164.822 341.67C173.546 332.479 182.441 323.068 191.216 314.014C195.558 309.535 209.863 296.043 212.377 291.39M212.377 291.39C213.908 293.349 216.788 301.322 218.007 304.003C231.306 333.241 247.825 361.114 267.517 386.488C269.152 388.595 272.982 392.534 273.405 394.968C272.898 396.45 268.926 400.225 269.202 401.189L269.524 401.334M269.524 401.334C264.478 409.377 256.489 418.153 250.633 425.839C247.941 429.374 243.856 433.684 240.881 437.035M269.524 401.334C270.935 399.513 273.496 396.047 274.999 394.54L275.311 394.594C275.382 398.132 271.721 401.295 269.682 404.058C265.441 409.869 261.102 415.606 256.665 421.27C255.585 422.665 251.924 427.687 250.744 428.568M240.881 437.035C225.556 454.207 209.404 470.622 192.483 486.224C190.222 488.295 180.506 495.591 181.3 498.479M240.881 437.035L241.533 437.346C245.105 436.79 247.713 429.838 250.744 428.568M250.744 428.568C247.79 432.755 235.807 446.698 232.548 450.227C226.63 456.633 187.344 496.838 181.3 498.479L180.391 498.678M180.391 498.678C178.435 498.757 171.97 497.668 169.949 497.114M180.391 498.678C184.014 499.819 218.653 502.669 221.075 501.929M169.949 497.114C164.371 495.867 154.174 494.969 148.796 493.326M169.949 497.114L169.943 496.746M148.796 493.326C140.882 489.938 128.506 488.055 120.212 485.74C101.563 480.538 81.5755 472.808 64.7653 463.146C63.1746 462.231 58.7449 459.756 57.5383 458.718M148.796 493.326C147.438 493.301 143.94 491.944 141.82 491.838C140.528 492.351 140.98 492.668 139.941 493.38C140.509 493.438 140.455 493.377 140.978 493.143C141.044 493.238 141.104 493.337 141.177 493.424C142.098 494.529 153.784 496.653 155.567 496.803L155.424 496.98C151.374 497.092 128.311 491.669 123.232 490.009C105.859 484.332 86.3687 478.592 70.2196 470.087C58.9218 464.136 47.4026 454.755 37.7094 446.479M57.5383 458.718C54.717 457.367 48.6892 452.367 46.2669 450.295M57.5383 458.718L57.6742 458.467C57.5885 458.252 56.9782 455.964 56.9826 455.762L57.8759 455.432C59.826 452.654 57.6856 449.408 59.0288 447.751C59.228 447.716 59.6546 447.645 59.8361 447.582C60.7665 447.263 62.9617 440.373 63.4576 439.104C64.2041 437.191 64.9566 434.996 66.0762 433.28C68.0871 430.195 71.5905 427.769 74.1839 425.154C76.1062 423.216 77.8246 421.03 79.6186 418.969C80.442 418.024 81.8542 417.014 82.3894 415.931M46.2669 450.295C45.0415 449.25 44.1514 448.518 43.0766 447.312M46.2669 450.295C46.5401 450.197 49.1499 449.435 49.1314 449.452C53.1923 445.579 57.2009 439.675 60.9638 435.747C65.149 431.38 70.0493 427.998 74.4407 423.803C76.3215 422.007 80.7777 416.321 82.3894 415.931M28.431 427.777C30.385 434.191 37.3226 441.752 41.9369 446.515L43.0766 447.312M43.0766 447.312C41.5856 441.656 40.6186 435.548 41.2169 429.597C41.3918 427.859 43.1288 424.72 42.8946 422.708C42.212 421.928 42.6135 422.105 41.7521 421.966C39.8465 422.714 37.7984 426.27 36.6403 428.099L34.6203 428.088C33.9612 427.163 34.3201 421.256 34.5264 419.932C34.7077 418.77 35.348 417.257 35.8169 416.141C32.9928 420.175 30.7526 428.552 34.4186 432.665C35.3461 432.895 35.4803 432.687 35.9465 431.784C36.9004 430.782 37.931 429.526 39.1161 428.901L39.7373 428.918C39.8126 429.002 40.5946 429.879 40.5946 429.879C40.6516 434.221 40.7179 438.479 41.4821 442.767C41.6243 443.564 42.0657 445.841 41.9369 446.515M28.431 427.777C26.701 423.991 26.3783 422.645 25.6927 418.609M28.431 427.777C29.9518 426.748 29.7911 424.387 30.1912 422.321C31.7586 414.228 42.903 405.824 49.0773 401.096C51.2109 399.461 52.8463 397.305 55.086 395.804M25.6927 418.609C24.5054 404.374 28.4054 398.997 37.6499 388.906C39.9346 386.411 41.3855 384.667 44.1512 382.47M116.529 271.301L116.787 271.423M116.787 271.423L117.682 273.719C118.38 273.973 119.474 273.37 120.364 273.045L120.476 273.383C119.164 274.783 118.56 274.145 117.615 276.094C115.69 280.062 113.048 283.731 111.382 287.819C110.764 289.312 110.813 291.81 110.453 292.798C108.854 297.182 107.66 305.122 105.009 308.558C105.016 309.508 105.039 309.579 105.252 310.515L104.932 311.045C104.801 310.914 104.67 310.783 104.539 310.654L104.437 310.774L104.798 311.067L104.333 310.941L103.832 311.962L104.017 312.131L104.775 311.79C105.547 312.786 103.42 316.637 103.049 318.103C100.783 327.061 98.464 335.815 95.0016 344.407C93.9246 347.082 93.7106 351.692 91.9775 354.004L91.68 354.053C92.3318 346.809 96.3925 338.855 98.3658 331.813C99.689 327.089 100.639 322.32 101.451 317.497C101.546 316.935 102.136 316.031 102.476 315.557L102.173 315.363L101.819 315.453L101.871 315.78C100.995 316.408 101.56 317.735 99.6928 319.08C98.5358 319.916 96.791 324.493 96.0549 325.885C93.0985 331.513 89.2244 335.717 88.9682 342.377C88.9493 342.862 87.4362 346.001 87.2001 346.968C85.4662 354.067 85.4138 358.562 79.6674 363.675C77.7012 365.422 75.6635 371.792 73.7344 374.044C72.9246 375.199 73.391 381.018 72.4478 382.5C71.4562 384.703 70.7529 387.181 69.8211 389.376C69.2362 390.754 67.7875 392.329 67.053 393.827C65.4108 397.174 64.7685 403.973 59.9589 403.913C59.5353 404.489 59.4739 404.339 59.4665 404.816C59.3718 410.906 57.2825 417.686 57.3712 423.77M169.943 496.746C172.52 497.152 174.374 497.401 176.99 497.6L177.134 497.354C175.324 497.237 172.946 497.106 171.296 496.377L171.848 495.618C171.414 494.679 167.288 489.485 166.078 487.25C163.395 482.296 160.497 477.235 157.844 472.224C156.93 470.499 155.02 466.792 153.969 465.354C151.284 462.654 145.124 445.729 143.414 441.875C139.196 432.272 134.597 422.46 131.452 412.423C129.345 405.698 127.836 398.38 125.552 391.633C124.556 388.693 125.498 386.761 123.331 384.206C122.47 383.668 121.659 383.898 120.592 383.993M120.592 383.993C117.457 385.191 110.776 390.992 108.123 393.647C101.533 400.244 94.8837 406.58 87.2724 412.101C86.1124 412.942 83.1277 414.978 82.3894 415.931M120.592 383.993C121.349 383.414 121.692 383.341 122.616 383.081C123.582 381.608 121.777 380.104 121.384 380.412C119.555 381.845 117.742 383.777 115.975 385.38L101.698 398.075C95.9039 403.192 89.6617 407.396 83.5742 412.134C81.8482 413.48 79.7749 414.484 78.0314 415.808C75.0344 418.125 72.2395 421.212 69.1696 423.448C68.1829 424.166 67.458 424.409 66.2806 424.368C65.5781 423.991 65.417 423.576 65.5082 422.755C67.5448 420.806 70.4595 418.655 72.078 416.485M153.969 465.354C154.618 467.311 155.863 469.415 156.831 471.26C160.119 477.522 163.536 483.721 166.727 490.034C167.426 491.418 169.68 493.132 169.432 494.674C167.95 495.411 165.324 493.145 164.707 491.958C162.871 488.432 162.044 484.343 160.378 480.724C155.88 471.869 150.957 463.154 147.163 453.95C146.763 452.978 146.934 452.73 146.202 452.108C145.651 454.321 162.453 483.813 162.375 488.969C162.357 490.181 165.735 494.78 165.311 495.4C165.042 495.397 151.882 493.208 152.058 493.282C158.131 494.895 164.556 495.378 169.943 496.746M66.4151 371.197C67.4195 369.603 67.2629 368.858 66.8598 367.149C67.0939 366.385 70.4133 358.906 70.7613 358.543L71.2911 358.497C72.293 360.001 70.5231 360.858 70.2146 362.228C69.7774 364.169 65.3163 374.473 65.5486 375.876L65.6215 375.941M66.4151 371.197C59.4382 383.851 57.8873 398.607 54.4648 412.377C53.5278 416.149 51.5829 424.349 49.7004 427.556C48.8295 420.178 50.8642 413.21 52.5924 406.015C53.4721 402.349 54.6547 399.827 55.086 395.804M57.3712 423.77C57.9291 427.329 56.2484 428.124 55.5246 430.558C56.3507 430.31 59.9862 426.598 60.8427 425.798C65.5003 421.458 69.6671 416.933 75.2134 413.701C76.5666 412.912 78.3134 410.758 79.9 410.035C78.0203 412.03 74.5535 415.377 72.078 416.485L71.6915 416.758C68.3595 419.163 53.6995 434.229 52.1926 434.319C52.3214 432.592 55.8267 429.202 56.146 427.965C56.4206 426.901 56.7135 423.221 56.916 421.805C57.6663 417.831 57.9256 412.587 58.5964 408.4C60.3871 397.226 62.2068 386.772 65.6215 375.941M56.916 421.805L57.3712 423.77M62.8878 373.302C60.04 380.715 57.4381 388.218 55.086 395.804M62.8878 373.302C62.4486 372.797 62.4221 372.688 61.7144 372.666C60.0613 372.617 46.2208 380.963 44.1512 382.47M82.0171 347.89C83.6932 343.378 88.6382 329.07 91.5755 326.008L91.9914 325.904C92.0056 326.769 89.4365 330.372 88.9436 331.554C87.2468 335.627 85.7192 339.912 84.0657 343.998C83.2723 345.96 82.5635 350.24 81.7191 351.397C80.3951 352.983 76.2265 361.821 74.5436 362.542C74.6528 361.254 75.8559 360.14 76.0783 358.786C76.6627 355.232 79.4354 350.333 82.0171 347.89ZM81.7191 351.397L81.296 350.898C81.2179 349.866 81.6705 348.9 82.0171 347.89M394.121 385.721C393.832 377.83 394.749 369.445 393.414 361.723C393.283 360.97 389.926 356.816 389.337 355.77C385.712 349.339 380.551 344.11 376.323 338.331L353.042 306.544C348.653 300.509 344.788 294.714 339.802 289.072C338.361 287.443 336.857 285.166 335.307 283.684L334.933 283.763C334.57 284.817 334.886 285.854 335.416 286.82C337.79 291.136 342.327 295.347 345.075 299.278C349.199 305.171 353.318 310.622 357.491 316.455C362.881 323.996 369.426 331.434 373.744 339.53C375.059 341.997 374.893 346.034 375.608 348.796C376.618 352.71 378.037 356.469 379.184 360.358C381.705 368.921 385.518 378.086 386.823 386.884C386.91 387.47 387.511 388.156 387.857 388.742C387.694 388.581 387.795 388.699 387.628 388.344C389.56 386.188 385.889 373.323 385.45 370.84C385.073 368.702 383.16 354.157 383.496 353.458L383.845 353.395C385.18 354.618 385.761 356.005 386.861 357.258C389.468 360.225 391.659 359.933 391.831 364.289C392.369 377.863 391.045 391.371 390.106 404.896C390.003 406.41 389.792 407.813 389.896 409.328C389.741 413.3 388.747 417.181 388.152 421.185C386.138 434.494 382.77 447.544 379.945 460.7C379.145 464.426 376.943 469.115 375.856 473.015C374.511 477.844 371.039 483.502 368.566 487.894L368.176 488.137C363.487 486.84 355.406 478.234 351.497 474.631C345.135 468.766 338.776 462.635 332.624 456.532C328.743 452.593 325.227 448.144 321.286 444.102L302.855 424.974C300.019 421.979 284.047 405.458 283.842 402.671C284.214 402.193 284.227 402.185 284.702 401.808C282.901 401.478 281.525 405.373 280.447 406.667C277.093 410.701 274.374 415.27 271.029 419.332C265.366 425.086 260.868 431.211 255.722 437.371C252.739 440.941 248.872 444.309 245.704 447.828L231.358 463.492C229.4 465.61 226.053 469.776 223.934 471.501C216.796 477.306 210.163 483.508 203.345 489.682C202.545 490.408 200.378 491.399 199.307 491.369L198.978 491.041C199.265 490.11 200.108 489.373 200.738 488.366C202.72 485.203 216.827 472.95 217.682 471.064C212.063 474.85 205.316 482.353 200.342 487.19C199.034 488.462 198.352 490.138 197.651 491.838C196.057 495.708 191.531 493.746 192.651 499.194C192.094 499.672 192.413 499.483 191.565 499.571C194.92 499.68 198.593 499.996 201.945 500.373C208.251 501.083 214.814 501.137 221.075 501.929M394.121 385.721C395.445 380.483 393.384 358.325 394.932 355.475C395.461 355.926 394.907 357.544 395.445 358.975C395.74 358.871 395.898 358.808 396.187 358.672L396.419 358.56L396.646 359.185C395.232 364.319 401.444 370.062 403.207 373.605M394.121 385.721C393.96 391.958 393.089 398.094 392.724 404.328C392.898 403.558 392.882 403.577 393.27 402.895C395.483 405.665 390.428 428.792 393.971 432.949C394.85 433.839 396.886 434.917 398.09 435.043C399.683 435.207 399.976 433.651 401.384 433.585L401.619 433.574C401.589 431.134 399.132 424.935 398.504 422.236C397.56 418.169 398.01 415.153 398.341 411.053C398.472 409.451 398.671 406.473 399.269 405.119C400.137 406.566 401.108 421.103 401.157 423.573C401.176 424.471 401.056 427.324 401.264 427.897L401.589 427.755C401.796 426.794 401.848 426.363 401.911 425.38L402.287 425.782C408.112 426.958 407.249 432.103 412.039 433.471C413.696 433.943 415.358 434.737 417.053 435.174C418.467 435.534 419.769 434.95 420.866 435.414C421.199 436.478 420.121 437.104 419.911 438.378C419.651 439.931 419.13 441.588 418.655 443.092C420.716 439.759 421.84 431.8 422.056 427.905C422.907 412.606 420.678 404.986 412.298 392.255C410.306 389.228 407.639 383.971 405.592 381.171C401.589 375.695 399.028 374.926 398.191 367.581C399.165 368.861 400.164 370.392 401.081 371.735M403.207 373.605L404.135 375.657M404.135 375.657C409.206 383.207 414.64 393.967 419.837 401.293L420.227 401.246C420.525 400.285 420.194 399.453 419.919 398.459M404.135 375.657C403.117 374.653 401.935 372.922 401.081 371.735M419.919 398.459C418.262 394.908 416.859 390.729 415.232 387.41M419.919 398.459C421.398 400.839 425.014 409.2 425.345 411.858M428.333 468.07C431.243 466.211 434.745 465.569 435.574 462.179C435.694 461.685 435.708 461.816 436.216 461.519C437.618 458.795 437.49 456.775 438.626 455.124C440.359 454.209 441.21 456.33 441.977 457.624C445.85 452.479 449.259 450.874 451.025 443.613C451.06 442.8 451.77 440.155 451.969 439.186C453.904 429.759 453.198 423.047 448.522 414.618C442.378 403.547 433.383 396.816 423.134 389.87C420.222 387.894 417.591 385.418 414.558 383.409C414.67 384.755 414.968 386.087 415.232 387.41M221.075 501.929C222.059 501.831 230.445 502.423 232.042 502.513C240.345 503.04 248.659 503.387 256.977 503.55C282.86 504.074 308.737 502.355 334.321 498.411C345.269 496.792 355.826 495.305 366.547 492.313C370.589 491.183 376.722 489.985 380.412 488.445M380.412 488.445C380.237 488.347 380.357 488.429 380.125 488.123C382.276 487.239 383.752 487.081 385.622 486.365C391.662 484.048 397.98 481.952 403.993 479.686C413.431 476.133 427.111 470.196 431.349 460.302C434.545 451.701 434.029 442.672 431.169 434.074C430.181 431.101 426.349 431.058 427.021 428.246C428.022 430.146 428.83 430.834 430.315 432.395C429.531 428.896 427.858 425.713 426.963 422.029C426.204 418.909 426.139 414.528 425.345 411.858M380.412 488.445C394.932 483.639 417.582 477.241 428.123 466.203M425.345 411.858C424.812 411.577 424.177 411.233 423.901 410.674C420.899 404.825 417.662 398.964 414.228 393.353C411.373 388.688 408.36 384.43 405.732 379.574C404.037 376.446 402.386 375.573 401.081 371.735M451.025 443.613L450.687 443.938C450.266 444.348 450.072 444.479 449.922 445.03C448.735 437.925 445.774 432.614 441.977 426.617C441.229 425.438 440.165 423.167 438.833 422.686L438.713 422.981C439.316 423.917 439.319 423.653 439.674 424.087C443.558 428.855 447.813 437.297 449.071 443.07L448.863 443.619L448.579 443.706L448.492 443.411C447.75 440.952 446.317 437.445 444.813 435.37C441.24 430.441 439.45 424.346 434.603 420.448C434.616 421.01 436.126 422.648 436.611 423.238L436.085 423.161C434.725 424.578 434.886 429.15 434.916 431.06C433.92 431.855 433.317 432.513 432.19 433.151C431.78 433.869 431.936 434.811 432.195 435.602C434.974 444.064 434.684 453.849 431.177 462.048C430.844 462.826 428.606 465.327 428.123 466.203M428.333 468.07C427.351 468.411 427.798 468.435 426.95 468.225L427.225 468.435L426.824 468.463C427.572 467.294 427.927 467.409 428.123 466.203M428.333 468.07C429.409 468.168 430.268 468.25 431.243 467.748C435.056 465.777 439.878 461.715 442.414 458.304C442.78 458.167 443.757 457.201 444.057 456.876C451.11 449.206 453.47 439.052 453.378 428.926C453.143 417.517 444.666 406.127 436.355 398.953C430.192 393.634 422.506 389.52 416.622 383.802C414.801 382.031 412.989 385.434 412.38 380.33C413.868 381.616 415.282 382.047 416.908 383.221C418.666 384.348 421.122 387.012 422.842 387.954C434.753 394.461 444.215 403.323 451.972 414.43C454.892 418.611 454.194 424.665 455.88 427.681L456.148 427.305C456.331 424.875 455.048 423.644 455.356 422.258L455.553 422.176C458.225 431.811 456.418 440.603 453.962 450.058C453.689 451.1 452.796 456.693 452.671 458.022M152.586 214.78C152.747 214.589 153.556 213.751 153.709 213.624C155.921 211.771 157.062 209.094 158.995 206.905L174.618 189.095C176.743 186.704 179.07 184.929 180.917 182.255C183.089 179.109 184.007 176.046 185.567 172.661C185.936 171.862 187.347 170.823 188.216 170.429M189.885 169.67L189.759 169.123C187.465 172.473 190.002 186.548 189.882 191.209C189.855 192.275 190.457 194.006 190.041 195.045C189.726 194.667 189.557 194.463 189.621 193.897C189.742 189.859 189.095 185.094 188.783 181.072C188.51 177.541 188.367 173.969 188.216 170.429M189.885 169.67C189.362 170.583 189.278 170.651 189.168 171.668C189.5 172.643 189.533 172.67 190.241 173.441C188.854 178.599 196.816 225.15 200.256 233.006C201.405 235.631 201.459 238.107 202.487 240.707C202.836 241.589 203.176 243.192 203.481 243.889L203.683 243.812C201.904 237.44 199.828 230.863 198.277 224.434C194.732 209.745 192.47 194.614 190.842 179.599C190.654 177.861 190.472 175.999 190.709 174.271C190.8 173.603 192.242 173.109 192.862 172.8C193.486 170.91 195.587 167.152 194.559 165.664C193.711 165.3 193.125 165.603 192.202 165.859C190.166 167.433 189.606 168.249 188.216 170.429M192.202 165.859C193.264 165.977 193.681 165.843 194.425 166.431C194.531 167.524 192.836 171.522 192.017 172.303C191.143 171.347 192.59 168.957 190.273 169.661L189.885 169.67M231.864 263.039C234.41 258.194 239.974 253.08 242.967 248.298C244.231 246.278 246.686 244.068 248.024 241.98C255.35 230.34 262.405 218.342 268.936 206.238C270.482 203.373 271.812 199.627 273.163 196.593C273.76 196.702 273.96 196.905 274.503 197.231C274.612 195.714 274.006 192.228 274.724 191.35L275.087 191.423C276.086 194.053 273.482 197.155 277.961 200.275C278.261 200.483 280.928 204.006 281.241 204.565C283.583 208.752 285.928 212.633 288.954 216.383C292.639 222.192 295.991 227.599 299.877 233.189C307.2 243.805 315.202 253.879 321.671 265.07C322.331 266.212 327.187 273.192 327.149 273.672C326.382 282.887 322.79 292.23 319.258 300.711C318.216 303.214 317.683 309.35 316.619 312.543C315.459 316.132 314.157 319.675 312.719 323.164C312.058 324.793 310.213 328.868 309.878 330.304M231.864 263.039C228.98 265.188 224.824 271.99 222.539 274.944C221.398 276.421 220.264 277.423 218.884 278.678C227.942 301.306 240.641 323.046 252.814 344.173C256.948 351.348 262.83 358.423 267.34 365.427C272.118 372.289 276.176 378.338 281.768 384.594M231.864 263.039C235.313 260.475 244.635 246.488 247.962 242.803C248.836 241.836 250.534 238.821 251.578 237.967C251.47 239.489 249.002 241.03 248.626 243.432L248.92 244.027C250.628 242.036 249.986 241.738 252.31 239.717C252.019 240.551 251.037 241.864 250.504 242.645C246.218 248.552 243.59 255.043 238.09 260.184C237.174 261.041 236.472 262.589 235.338 263.229C235.288 262.458 235.984 261.83 236.577 261.154C238.153 259.335 239.807 257.584 241.532 255.904L238.453 256.008L238.272 256.204C236.591 258.053 233.97 261.835 232.309 263.133L231.864 263.039ZM309.878 330.304C309.864 332.509 308.049 333.694 308.739 334.87C308.928 334.745 311.392 328.715 311.865 327.801C311.985 328.541 310.513 331.944 310.15 332.919C303.188 351.613 293.059 368.883 282.803 385.915C282.658 386.158 282.298 386.42 282.079 386.589L281.686 386.51C281.389 385.579 281.487 385.688 281.768 384.594M309.878 330.304C309.324 331.156 307.781 334.985 307.298 336.11C305.762 339.693 304.181 343.258 302.557 346.801C298.245 356.253 293.551 365.132 288.242 374.052C286.214 377.456 284.05 381.427 281.768 384.594M86.3723 469.852C87.5467 469.893 87.484 469.907 88.1475 470.551C88.4608 471.572 88.4373 471.52 88.2828 472.59C87.3079 472.216 87.1529 472.172 86.312 471.582C85.9746 470.589 86.0259 470.99 86.3723 469.852ZM115.312 313.277C115.082 318.725 115.968 324.487 116.095 329.916C116.4 343.032 119.599 356.504 119.848 369.486C116.52 372.789 111.937 376.187 108.405 379.558C97.9807 389.504 87.9373 399.819 77.2719 409.519C74.7969 411.768 67.3022 419.367 64.6599 420.609C64.1894 420.181 63.9661 419.744 63.6315 419.206C62.4816 419.627 62.3321 420.413 61.2925 420.44L61.3375 420.039C62.0681 419.105 63.0684 418.617 64.0303 417.964C70.6792 413.453 85.488 377.543 89.8806 368.544C92.1849 363.822 94.8793 359.267 97.2711 354.583C99.618 349.986 101.659 345.251 103.967 340.641C105.434 337.709 107.175 334.879 108.499 331.882C109.697 329.171 110.598 326.294 111.685 323.532C112.998 320.199 114.62 316.801 115.312 313.277ZM185.42 211.517C188.156 213.223 187.159 213.909 187.995 216.737C189.169 220.855 189.913 225.044 190.928 229.199C193.853 241.166 196.51 253.174 199.631 265.103C200.068 266.773 199.303 271.209 199.044 273.069L198.755 273.211C198.525 271.082 199.667 266.66 199.375 265.442C198.756 262.86 197.824 259.422 197.142 256.75L190.863 232.832C189.789 228.637 188.97 224.289 187.846 220.094C187.504 218.823 187.429 217.328 186.868 216.227L186.441 216.38C185.503 221.334 185.478 224.681 183.41 229.633C182.535 232.368 182.221 236.036 181.265 238.66C177.969 247.715 176.013 256.693 173.64 265.952C171.918 270.4 171.246 275.867 169.747 280.352C166.657 289.596 163.566 298.538 161.228 308.015C160.811 309.707 158.11 321.469 157.616 321.998L157.434 321.884C157.566 320.811 158.73 317.028 159.06 315.524C160.693 308.072 162.782 300.509 164.864 293.167C165.73 290.112 167.46 286.477 168.319 283.417C171.205 273.14 173.868 262.901 176.343 252.521C177.501 247.666 179.875 241.905 181.068 236.952C181.659 234.496 182.18 231.226 182.71 228.7C182.982 227.401 184.975 221.905 185.009 221.363C185.2 218.341 185.152 214.763 185.42 211.517ZM146.185 231.455C146.267 232.824 138.419 240.904 137.596 242.737C137.441 243.081 138.657 246.205 137.814 247.887C137.035 249.442 135.867 253.167 134.976 254.723C134.592 255.392 131.78 256.52 131.442 257.825C130.872 260.024 130.688 262.377 130.285 264.58C129.615 268.243 128.901 271.823 128.26 275.479C127.742 278.43 127.537 281.872 126.948 284.721L126.906 284.918C126.938 285.761 126.931 285.821 126.783 286.657C126.187 283.813 131.011 256.404 132.035 252.509C132.568 250.46 133.331 248.477 134.31 246.598C136.439 242.534 142.922 235.361 146.185 231.455ZM403.524 441.831C403.537 441.856 403.551 441.877 403.565 441.899C406.182 444.973 407.566 451.332 407.773 455.296C407.833 456.491 407.506 458.8 407.525 460.433L407.533 460.755C405.24 463.443 404.056 464.74 401.493 467.112L401.676 466.861L401.204 467.341L401.095 467.254L403.259 465.105C406.147 462.365 408.9 457.073 406.736 453.218C405.904 453.117 404.907 453.568 404.08 453.852C401.613 452.566 398.622 447.454 399.064 444.588C399.471 441.951 401.892 442.931 403.524 441.831ZM242.216 36.8849L242.58 36.7501C244.003 36.9829 244.228 37.2379 245.106 38.4189C244.744 38.6537 244.021 37.9467 243.032 38.0597C243.594 38.7252 247.718 43.6677 247.639 44.1902C247.017 48.3212 243.593 51.8142 241.797 55.4425C240.194 58.6805 240.313 62.6191 239.63 66.105C239.17 69.3056 238.087 72.7573 237.573 75.8954C236.984 79.4994 235.514 80.0658 234.295 82.8556C232.372 87.2536 231.308 92.2292 230.406 96.9117C230.115 98.4189 229.396 100.044 229.088 101.574C228.401 104.732 229.095 109.594 228.376 112.472C227.953 112.301 228.174 110.135 227.585 109.177C226.252 112.604 223.447 119.013 222.748 122.165C221.312 128.646 221.1 135.27 219.291 141.726C218.328 145.162 216.941 148.568 215.591 151.872C214.927 153.497 214.11 155.042 213.614 156.733C212.904 159.157 212.859 163.423 212.324 164.941C211.772 166.506 210.581 167.957 210.225 169.578C209.268 173.926 209.362 178.611 208.111 182.883C206.759 187.5 203.073 188.559 202.92 189.297C202.474 191.451 203.856 190.503 202.125 193.204C201.837 192.761 202.185 190.766 202.215 189.836C201.719 189.055 200.577 179.472 200.746 178.332C201.615 172.503 202.182 161.132 206.359 157.031C206.257 157.884 205.441 159.103 204.982 159.902C204.278 161.043 203.324 166.097 203.427 167.099C205.199 166.147 206.68 162.136 207.382 160.629C208.37 159.312 210.39 157.098 210.973 155.634C212.188 152.576 212.592 144.158 211.64 141.082C211.211 141.613 210.869 142.063 210.468 142.615C210.246 141.039 214.321 133.227 215.016 130.593C216.453 125.147 216.11 120.898 216.46 115.425C216.593 113.333 219.247 109.582 219.884 107.343C221.236 102.59 221.955 97.611 223.493 92.9056C224.331 90.1687 221.24 84.2018 223.26 81.2195C224.04 82.5507 223.649 88.6364 224.665 89.7549L225.11 89.5005C225.317 89 225.294 88.2512 225.32 87.6928C225.455 84.8367 226.794 82.0346 227.245 79.2226C227.942 74.8746 228.416 70.539 229.389 66.2311C230.042 63.7726 230.612 61.2861 231.134 58.7951C231.612 56.5149 233.096 54.3305 232.355 52.0232C231.723 53.7543 231.45 55.0071 230.472 56.748C229.99 57.6045 228.779 58.8325 229.168 59.7433L229.911 58.936C230.217 59.7302 230.116 60.6703 230.098 61.5434L229.816 61.7618L229.372 61.2686C228.342 64.4468 227.367 67.7135 227.468 71.0882C227.512 72.5305 227.898 72.9369 226.784 74.3456L226.444 74.2503C224.258 67.7077 232.006 53.2573 231.42 45.9998C231.302 44.5447 232.721 42.4127 233.525 41.054L233.765 41.0859L234.092 41.4145C236.553 40.6211 236.373 37.1194 242.216 36.8849ZM239.737 41.485C240.848 41.3231 241.015 41.3515 241.992 41.7934C243.571 43.8853 241.588 46.0113 239.994 47.3681C236.08 47.7573 235.678 43.4502 239.737 41.485ZM270.39 177.865C270.878 178.578 270.783 178.543 270.619 179.474C268.993 188.706 264.535 194.638 260.149 202.634C251.554 218.347 242.351 233.72 232.561 248.718C230.219 252.317 217.012 272.313 214.933 273.746C214.581 273.29 214.514 273.077 214.269 272.55C214.248 270.906 215.239 268.863 216.123 267.501C221.736 258.851 227.72 250.343 233.425 241.741C241.637 229.245 249.471 216.504 256.915 203.535C261.444 195.76 266.063 184.49 270.39 177.865ZM238.481 31.5229L238.825 31.8174C238.776 33.0028 234.122 37.733 233.338 39.0219C226.552 50.1653 220.719 62.0025 216.082 74.1974C214.318 78.8391 213.197 83.8775 211.344 88.5215C209.118 94.1019 206.492 99.5014 204.265 105.08C202.246 110.054 199.659 119.51 197.201 123.859C197.135 123.326 197.503 122.813 197.772 122.224C199.854 116.054 202.163 109.8 204.281 103.63C204.566 103.188 204.617 101.072 204.781 100.831C210.571 92.3294 212.709 82.2278 216.169 72.6609C219.409 63.7058 223.868 54.9602 228.309 46.5195C229.4 44.4451 229.889 43.9404 229.115 41.7391L228.956 41.2974L229.292 40.861L230.396 40.7837C231.012 39.9663 231.015 39.1862 231.176 38.152C231.397 38.2816 231.618 38.4113 231.839 38.5409C235.105 35.577 235.74 35.4258 238.36 31.6967L238.481 31.5229Z" stroke="white" stroke-width="3" stroke-linecap="round" stroke-linejoin="round"/>
</svg>
